# xmcd
#
# Track frame offsets:
#	150
#	17135
#	29865
#	46082
#	60447
#	74667
#	90662
#	108372
#	124735
#	140060
#	156432
#	173337
#	186090
#	202420
#	216770
#	231070
#	247135
#	264830
#	281186
#	296621
#
# Disc length: 4323 seconds
#
# Revision: 1
# Processed by: cddbd v1.5.1PL0 Copyright (c) Steve Scherf et al.
# Submitted via: audiograbber 1.83.01
#
DISCID=3710e114
DTITLE=Various Artist - N-014
DYEAR=1999
DGENRE=Karaoke
TTITLE0=Shania Twain - That Don't Impress Me Much (Vocal)
TTITLE1=Alabama - Keepin' Up (Vocal)
TTITLE2=The Dixie Chicks - You Were Mine (Vocal)
TTITLE3=Kenny Chesney - How Forever Feels (Vocal)
TTITLE4=Lee Ann Womack - I'll Think Of A Reason Later (Vocal)
TTITLE5=Lari White - Take Me (Vocal)
TTITLE6=South Sixty-Five - A Random Act Of Senseless Kindness (Vocal)
TTITLE7=Sawyer Brown - Drive Me Wild (Vocal)
TTITLE8=Tracy Byrd - When Mama Ain't Happy  (Vocal)
TTITLE9=Andy Griggs - You Won't Ever Be Lonely (Vocal)
TTITLE10=Shania Twain - That Don't Impress Me Much
TTITLE11=Alabama - Keepin' Up
TTITLE12=The Dixie Chicks - You Were Mine
TTITLE13=Kenny Chesney - How Forever Feels
TTITLE14=Lee Ann Womack - I'll Think Of A Reason Later
TTITLE15=Lari White - Take Me
TTITLE16=South Sixty-Five - A Random Act Of Senseless Kindness
TTITLE17=Sawyer Brown - Drive Me Wild
TTITLE18=Tracy Byrd - When Mama Ain't Happy
TTITLE19=Andy Griggs - You Won't Ever Be Lonely
EXTD=
EXTT0=
EXTT1=
EXTT2=
EXTT3=
EXTT4=
EXTT5=
EXTT6=
EXTT7=
EXTT8=
EXTT9=
EXTT10=
EXTT11=
EXTT12=
EXTT13=
EXTT14=
EXTT15=
EXTT16=
EXTT17=
EXTT18=
EXTT19=
PLAYORDER=
